HIERARCHY
ROOT Hips
{
	OFFSET 0.000000 0.000000 0.000000 
	CHANNELS 6 Xposition Yposition Zposition Zrotation Yrotation Xrotation
	JOINT LeftUpLeg
	{
		OFFSET 1.363060 -1.794630 0.839290 
		CHANNELS 3 Zrotation Yrotation Xrotation
		JOINT LeftLeg
		{
			OFFSET 2.448110 -6.726130 0.000000 
			CHANNELS 3 Zrotation Yrotation Xrotation
			JOINT LeftFoot
			{
				OFFSET 2.562200 -7.039590 0.000000 
				CHANNELS 3 Zrotation Yrotation Xrotation
				JOINT LeftToeBase
				{
					OFFSET 0.157640 -0.433110 2.322550 
					CHANNELS 3 Zrotation Yrotation Xrotation
					End Site
					{
						OFFSET 0.000000 0.000000 0.000000 
					}
				}
			}
		}
	}
	JOINT RightUpLeg
	{
		OFFSET -1.305520 -1.794630 0.839290 
		CHANNELS 3 Zrotation Yrotation Xrotation
		JOINT RightLeg
		{
			OFFSET -2.542530 -6.985550 0.000000 
			CHANNELS 3 Zrotation Yrotation Xrotation
			JOINT RightFoot
			{
				OFFSET -2.568260 -7.056230 0.000000 
				CHANNELS 3 Zrotation Yrotation Xrotation
				JOINT RightToeBase
				{
					OFFSET -0.164730 -0.452590 2.363150 
					CHANNELS 3 Zrotation Yrotation Xrotation
					End Site
					{
						OFFSET 0.000000 0.000000 0.000000 
					}
				}
			}
		}
	}
	JOINT Spine
	{
		OFFSET 0.028270 2.035590 -0.193380 
		CHANNELS 3 Zrotation Yrotation Xrotation
		JOINT Spine1
		{
			OFFSET 0.056720 2.048850 -0.042750 
			CHANNELS 3 Zrotation Yrotation Xrotation
			JOINT Neck1
			{
				OFFSET -0.054170 1.746240 0.172020 
				CHANNELS 3 Zrotation Yrotation Xrotation
				JOINT Head
				{
					OFFSET 0.104070 1.761360 -0.123970 
					CHANNELS 3 Zrotation Yrotation Xrotation
					End Site
					{
						OFFSET 0.000000 0.000000 0.000000 
					}
				}
			}
			JOINT LeftArm
			{
				OFFSET 3.362410 1.200890 -0.311210 
				CHANNELS 3 Zrotation Yrotation Xrotation
				JOINT LeftForeArm
				{
					OFFSET 4.983000 -0.000000 -0.000000 
					CHANNELS 3 Zrotation Yrotation Xrotation
					JOINT LeftHand
					{
						OFFSET 3.483560 -0.000000 -0.000000 
						CHANNELS 3 Zrotation Yrotation Xrotation
						JOINT LeftHandIndex1
						{
							OFFSET 0.715260 -0.000000 -0.000000 
							CHANNELS 3 Zrotation Yrotation Xrotation
							End Site
							{
								OFFSET 0.000000 0.000000 0.000000 
							}
						}
					}
				}
			}
			JOINT RightArm
			{
				OFFSET -3.136600 1.374050 -0.404650 
				CHANNELS 3 Zrotation Yrotation Xrotation
				JOINT RightForeArm
				{
					OFFSET -5.241900 -0.000000 -0.000000 
					CHANNELS 3 Zrotation Yrotation Xrotation
					JOINT RightHand
					{
						OFFSET -3.444170 -0.000000 -0.000000 
						CHANNELS 3 Zrotation Yrotation Xrotation
						JOINT RightHandIndex1
						{
							OFFSET -0.622530 -0.000000 -0.000000 
							CHANNELS 3 Zrotation Yrotation Xrotation
							End Site
							{
								OFFSET 0.000000 0.000000 0.000000 
							}
						}
					}
				}
			}
		}
	}
}
MOTION
Frames: 7
Frame Time: 0.041667
6.004689 11.846833 22.524653 -173.062064 -2.154700 -109.276702 -9.590033 -17.980905 -5.978364 -7.035189 -0.024401 0.122336 1.610344 3.522834 9.493501 0.813000 -5.753800 -16.071600 22.268134 16.731133 -138.695562 -3.249179 -20.766087 48.405020 -2.815886 -1.303024 41.852841 -0.070300 1.710700 -4.706800 1.341105 2.932287 -3.538361 12.518725 -2.417231 7.098911 8.883016 4.212183 -7.322756 0.307100 2.744400 8.796600 -17.647705 -45.828200 28.272542 13.092888 -10.196603 -8.235013 -11.652439 5.419564 -23.698341 -7.125000 0.000000 0.000000 -74.254888 55.993802 -104.829007 -7.099447 18.073608 -1.584950 5.484408 -0.845356 25.051854 7.125000 0.000000 0.000000 
6.004221 11.870438 22.550595 -173.103952 -2.206593 -109.213590 -9.501414 -18.050867 -6.135854 -7.027558 -0.014633 0.080405 1.528961 3.681662 9.484365 0.808000 -5.736700 -16.022200 22.167367 16.625160 -138.419321 -3.061660 -20.691216 47.878665 -2.867423 -1.438923 42.025363 -0.073600 1.750200 -4.815900 1.345655 2.928842 -3.523375 12.613125 -2.413330 7.002081 8.920310 4.137649 -7.202352 0.330400 2.709800 8.840100 -17.386075 -45.634436 27.545124 12.988339 -10.338707 -8.135320 -11.634508 5.348779 -23.627777 -7.125000 0.000000 0.000000 -73.982910 55.944609 -104.462187 -7.100219 18.072532 -1.584456 5.466358 -0.845361 25.072199 7.125000 0.000000 0.000000 
6.003520 11.893809 22.576653 -173.141261 -2.267903 -109.144253 -9.398385 -18.118853 -6.294642 -7.019115 -0.007201 0.040575 1.493261 3.759528 9.494006 0.777000 -5.628000 -15.708800 22.084920 16.520089 -138.150125 -2.873596 -20.612018 47.352005 -2.920642 -1.571737 42.200877 -0.076800 1.787800 -4.919600 1.351100 2.925444 -3.507531 12.713163 -2.408922 6.910457 8.959155 4.063188 -7.071953 0.356400 2.675900 8.889500 -17.120334 -45.430746 26.777030 12.883704 -10.499315 -8.031152 -11.614223 5.266464 -23.554148 -7.125000 0.000000 0.000000 -73.701878 55.904527 -104.078148 -7.104310 18.067838 -1.585642 5.444485 -0.846944 25.091699 7.125000 0.000000 0.000000 
6.002235 11.917063 22.602595 -173.173895 -2.338261 -109.070475 -9.282638 -18.184847 -6.452673 -7.010144 -0.002558 0.003409 1.512334 3.740333 9.525133 0.716800 -5.410500 -15.083200 22.023899 16.415076 -137.884933 -2.685442 -20.529274 46.825784 -2.975859 -1.702689 42.381778 -0.079500 1.819300 -5.006600 1.357541 2.921774 -3.490668 12.816819 -2.404353 6.826307 8.993015 3.992229 -6.928237 0.380400 2.642400 8.948900 -16.854649 -45.218465 25.969126 12.776696 -10.676117 -7.922537 -11.592486 5.175135 -23.476951 -7.125000 0.000000 0.000000 -73.414426 55.871992 -103.683769 -7.111754 18.061951 -1.588647 5.419394 -0.850490 25.106085 7.125000 0.000000 0.000000 
6.000482 11.940083 22.628069 -173.201678 -2.421213 -108.997780 -9.154516 -18.249884 -6.608753 -7.000175 0.000356 -0.031932 1.556224 3.678058 9.567275 0.645700 -5.140500 -14.309800 21.987187 16.306421 -137.619079 -2.497923 -20.443665 46.302322 -3.032209 -1.832268 42.564339 -0.082000 1.847000 -5.083100 1.365459 2.917802 -3.472951 12.924502 -2.400081 6.748400 9.022402 3.924635 -6.774527 0.401900 2.608900 9.014900 -16.593611 -45.000422 25.131406 12.667620 -10.865746 -7.812639 -11.572716 5.076264 -23.410952 -7.125000 0.000000 0.000000 -73.127989 55.845515 -103.279915 -7.124096 18.059385 -1.593671 5.393265 -0.852698 25.093978 7.125000 0.000000 0.000000 
5.998262 11.963220 22.653544 -173.224599 -2.510825 -108.927001 -9.021681 -18.311587 -6.764985 -6.989290 0.003628 -0.066877 1.587638 3.638292 9.604893 0.583200 -4.889900 -13.594800 21.965627 16.196163 -137.349541 -2.309520 -20.355651 45.777766 -3.090357 -1.960131 42.749263 -0.084500 1.875300 -5.161300 1.374766 2.914640 -3.454486 13.043338 -2.395880 6.673201 9.049063 3.860739 -6.614987 0.423600 2.576100 9.082800 -16.335770 -44.775565 24.260014 12.554283 -11.067508 -7.702003 -11.557693 4.970245 -23.370989 -7.125000 0.000000 0.000000 -72.843110 55.829500 -102.880854 -7.144335 18.061984 -1.602131 5.364752 -0.858686 25.091412 7.125000 0.000000 0.000000 
5.995808 11.986124 22.679135 -173.245864 -2.594056 -108.861982 -8.900121 -18.368567 -6.920329 -6.978543 0.009470 -0.102558 1.574945 3.675634 9.618102 0.542900 -4.720900 -13.114100 21.945157 16.086649 -137.068796 -2.118311 -20.266436 45.248356 -3.151382 -2.083935 42.937762 -0.087300 1.905300 -5.243900 1.385121 2.912515 -3.435294 13.178830 -2.391706 6.598666 9.072265 3.802750 -6.453390 0.444700 2.544300 9.148800 -16.079647 -44.544713 23.353689 12.436785 -11.279463 -7.591936 -11.548988 4.857692 -23.364597 -7.125000 0.000000 0.000000 -72.559383 55.820777 -102.451236 -7.173562 18.072709 -1.613208 5.339457 -0.863309 25.047179 7.125000 0.000000 0.000000 
